<svg width="59" height="14" viewBox="0 0 59 14" fill="none" xmlns="http://www.w3.org/2000/svg">
<g clip-path="url(#clip0_802_788)">
<path d="M33.7088 1.54497C33.6107 1.24143 33.4822 0.983871 33.2056 0.972373H33.1881H32.9572H32.5128C32.4932 0.970073 32.4714 0.967773 32.4496 0.967773H32.2274C32.2057 0.967773 32.1839 0.970073 32.1643 0.972373C31.9334 1.00917 31.8179 1.25292 31.7308 1.53808L28.3107 11.6264C28.3107 11.7598 28.4131 11.8679 28.5394 11.8679H29.2539C29.5371 11.8679 29.6831 11.6218 29.768 11.3252L30.4499 9.22336C30.4978 9.07848 30.6263 8.9819 30.7723 8.9819H34.5758C34.7195 8.9819 34.8481 9.07848 34.896 9.22106L35.6062 11.3459C35.6933 11.6425 35.8458 11.8886 36.142 11.8886H36.8892C37.0221 11.8886 37.1289 11.7805 37.1289 11.6471L33.7088 1.54497ZM30.9182 7.7884L32.6435 2.48091L34.4189 7.7884H30.9182Z" fill="white"/>
<path d="M43.7076 1.00015C43.6161 0.963358 43.0868 0.967957 43.0868 0.967957C42.7317 0.977156 42.5051 0.967957 42.3461 1.20022C42.3221 1.23471 42.3047 1.27151 42.2873 1.3083L40.1677 6.14897L37.9849 1.3106C37.9675 1.27381 37.9501 1.23701 37.9261 1.20252C37.7671 0.970257 37.5405 0.977156 37.1855 0.970257C37.1855 0.970257 36.6561 0.965658 36.5646 1.00245C36.3468 1.08984 36.4905 1.37269 36.5929 1.60495L39.2702 7.24358C39.3922 7.50114 39.4554 7.78399 39.4554 8.07144V11.4749C39.4554 11.7048 39.6318 11.8911 39.8497 11.8911H40.4095C40.6273 11.8911 40.8038 11.7048 40.8038 11.4749V8.08754C40.8038 7.80009 40.867 7.51723 40.989 7.25968L43.6771 1.60265C43.7817 1.37039 43.9255 1.08754 43.7076 1.00015Z" fill="white"/>
<path d="M53.9418 6.26618L47.5155 0.583858C47.4676 0.542465 47.3979 0.544765 47.3543 0.593057L46.4045 1.63708L51.6523 6.26618L46.4045 10.8953L47.3543 11.9393C47.3979 11.9876 47.4676 11.9899 47.5155 11.9485L53.9418 6.26618Z" fill="white"/>
<path d="M58.56 6.31208L52.1337 0.629757C52.0858 0.588364 52.0161 0.590663 51.9725 0.638955L51.0227 1.68298L56.2705 6.31208L51.0227 10.9412L51.9725 11.9852C52.0161 12.0335 52.0858 12.0358 52.1337 11.9944L58.56 6.31208Z" fill="white"/>
<path d="M8.30846 0.960938H7.49809C7.32818 0.960938 7.19312 1.10581 7.19312 1.28288V11.5276C7.19312 11.7139 7.33689 11.868 7.51552 11.868H8.29539C8.47184 11.868 8.61779 11.7162 8.61779 11.5276V1.28518C8.61562 1.10581 8.47838 0.960938 8.30846 0.960938Z" fill="white"/>
<path d="M5.40903 10.5688H1.7907V1.28532C1.7907 1.10595 1.65346 0.963379 1.48572 0.963379H0.747238C0.577322 0.963379 0.442261 1.10825 0.442261 1.28532V10.5711V11.4197C0.442261 11.6313 0.603463 11.8014 0.803876 11.8014H1.79287H5.41121C5.58548 11.8014 5.7249 11.6542 5.7249 11.4703V10.9C5.72272 10.7183 5.58112 10.5688 5.40903 10.5688Z" fill="white"/>
<path d="M27.2498 1.56328C26.7989 1.24133 26.1758 1.01367 24.9843 1.01367H23.1043H22.6773C22.4028 1.01367 22.1785 1.24823 22.1785 1.54028V11.3274C22.1785 11.6264 22.4072 11.8701 22.6926 11.8701H23.089C23.3722 11.8701 23.6031 11.6287 23.6031 11.3274V7.65033C24.0301 7.65033 25.5071 7.65033 25.6813 7.65033C25.8839 7.65033 28.485 7.22031 28.485 4.23082C28.4828 2.92924 27.851 1.9956 27.2498 1.56328ZM25.2086 6.52353C25.0736 6.52353 23.76 6.52353 23.76 6.52353H23.601V2.14048H24.7468C25.5332 2.14048 25.9449 2.28995 26.2434 2.50382C26.642 2.78897 27.0581 3.40526 27.0581 4.26531C27.0603 6.24068 25.3437 6.52353 25.2086 6.52353Z" fill="white"/>
<path d="M20.8605 12.1117C20.8039 12.068 20.7407 12.0358 20.6732 12.0082C20.1373 11.792 19.3552 11.2194 18.9196 10.9228C18.5819 10.6928 18.6342 10.5111 18.6799 10.4352C18.6886 10.4237 18.6995 10.41 18.7083 10.3985C18.7104 10.3962 18.7104 10.3962 18.7104 10.3962C19.4511 9.43722 19.8802 8.07125 19.8802 6.34655C19.8802 3.29727 18.6451 0.825195 15.2925 0.825195C12.2079 0.825195 10.7266 3.29727 10.7266 6.34655C10.7266 9.39583 11.7221 12.0059 15.2925 12.0059C16.0179 12.0059 16.6845 11.8587 17.2705 11.5736H17.2727C17.4448 11.4954 17.6125 11.4977 17.8434 11.6747C19.499 12.9694 20.3203 13.4454 20.9084 13.4454C21.1916 13.4454 21.1415 12.5256 21.1415 12.5256C21.1415 12.5256 21.1001 12.2933 20.8605 12.1117ZM12.1905 6.36954C12.1905 6.36265 12.1905 6.35575 12.1905 6.34655C12.1948 4.2769 12.9093 2.08078 15.2969 2.08078C18.0024 2.08078 18.4163 4.2769 18.4185 6.34655C18.4185 6.35345 18.4185 6.36035 18.4185 6.36954C18.4185 8.83242 17.6626 10.7043 15.2969 10.7043C12.5804 10.7043 12.1905 8.44609 12.1905 6.36954Z" fill="white"/>
</g>
<defs>
<clipPath id="clip0_802_788">
<rect width="59" height="14" fill="white"/>
</clipPath>
</defs>
</svg>
