<svg width="317" height="50" viewBox="0 0 317 50" fill="none" xmlns="http://www.w3.org/2000/svg">
<g opacity="0.8">
<mask id="path-1-inside-1_53_748" fill="white">
<path fill-rule="evenodd" clip-rule="evenodd" d="M17 0C14.2386 0 12 2.23858 12 5V15.9171C12 16.2744 11.8094 16.6045 11.5 16.7831L0.499999 23.134C-0.166668 23.5189 -0.166666 24.4811 0.500001 24.866L11.5 31.2169C11.8094 31.3955 12 31.7256 12 32.0829V45C12 47.7614 14.2386 50 17 50H312C314.761 50 317 47.7614 317 45V5C317 2.23858 314.761 0 312 0H17Z"/>
</mask>
<path fill-rule="evenodd" clip-rule="evenodd" d="M17 0C14.2386 0 12 2.23858 12 5V15.9171C12 16.2744 11.8094 16.6045 11.5 16.7831L0.499999 23.134C-0.166668 23.5189 -0.166666 24.4811 0.500001 24.866L11.5 31.2169C11.8094 31.3955 12 31.7256 12 32.0829V45C12 47.7614 14.2386 50 17 50H312C314.761 50 317 47.7614 317 45V5C317 2.23858 314.761 0 312 0H17Z" fill="url(#paint0_linear_53_748)" fill-opacity="0.3"/>
<path d="M11.5 31.2169L13 28.6188L11.5 31.2169ZM0.499999 23.134L-1 20.5359L0.499999 23.134ZM0.500001 24.866L2 22.268L0.500001 24.866ZM11.5 16.7831L10 14.185L11.5 16.7831ZM15 5C15 3.89543 15.8954 3 17 3V-3C12.5817 -3 9.00001 0.581725 9.00001 5H15ZM15 15.9171V5H9.00001V15.9171H15ZM2 25.7321L13 19.3812L10 14.185L-1 20.5359L2 25.7321ZM13 28.6188L2 22.268L-0.999999 27.4641L10 33.815L13 28.6188ZM15 45V32.0829H9.00001V45H15ZM17 47C15.8954 47 15 46.1046 15 45H9.00001C9.00001 49.4183 12.5817 53 17 53V47ZM312 47H17V53H312V47ZM314 45C314 46.1046 313.105 47 312 47V53C316.418 53 320 49.4183 320 45H314ZM314 5V45H320V5H314ZM312 3C313.105 3 314 3.89542 314 5H320C320 0.58173 316.418 -3 312 -3V3ZM17 3H312V-3H17V3ZM10 33.815C9.38121 33.4577 9.00001 32.7974 9.00001 32.0829H15C15 30.6538 14.2376 29.3333 13 28.6188L10 33.815ZM-1 20.5359C-3.66668 22.0755 -3.66666 25.9245 -0.999999 27.4641L2 22.268C3.33333 23.0377 3.33334 24.9622 2 25.7321L-1 20.5359ZM9.00001 15.9171C9.00001 15.2026 9.38121 14.5423 10 14.185L13 19.3812C14.2376 18.6667 15 17.3462 15 15.9171H9.00001Z" fill="url(#paint1_linear_53_748)" fill-opacity="0.2" mask="url(#path-1-inside-1_53_748)"/>
</g>
<defs>
<linearGradient id="paint0_linear_53_748" x1="-2" y1="-1.86794e-06" x2="73.1523" y2="162.662" gradientUnits="userSpaceOnUse">
<stop stop-color="#0085FF"/>
<stop offset="1" stop-color="white" stop-opacity="0.2"/>
</linearGradient>
<linearGradient id="paint1_linear_53_748" x1="-0.999995" y1="-17.36" x2="141.338" y2="204.682" gradientUnits="userSpaceOnUse">
<stop offset="0.364583" stop-color="white" stop-opacity="0.9"/>
<stop offset="0.739583" stop-color="white" stop-opacity="0.5"/>
<stop offset="1" stop-color="#0DDCAA" stop-opacity="0.41"/>
</linearGradient>
</defs>
</svg>
