<svg width="350" height="64" viewBox="0 0 350 64" fill="none" xmlns="http://www.w3.org/2000/svg">
<g opacity="0.8">
<mask id="path-1-inside-1_89_3040" fill="white">
<path fill-rule="evenodd" clip-rule="evenodd" d="M184.238 14C183.88 14 183.55 13.8094 183.372 13.5L175.866 0.5C175.481 -0.166667 174.519 -0.166666 174.134 0.500001L166.628 13.5C166.45 13.8094 166.12 14 165.762 14H5C2.23858 14 0 16.2386 0 19V59C0 61.7614 2.23857 64 4.99999 64H345C347.761 64 350 61.7614 350 59V19C350 16.2386 347.761 14 345 14H184.238Z"/>
</mask>
<path fill-rule="evenodd" clip-rule="evenodd" d="M184.238 14C183.88 14 183.55 13.8094 183.372 13.5L175.866 0.5C175.481 -0.166667 174.519 -0.166666 174.134 0.500001L166.628 13.5C166.45 13.8094 166.12 14 165.762 14H5C2.23858 14 0 16.2386 0 19V59C0 61.7614 2.23857 64 4.99999 64H345C347.761 64 350 61.7614 350 59V19C350 16.2386 347.761 14 345 14H184.238Z" fill="url(#paint0_linear_89_3040)" fill-opacity="0.3"/>
<path d="M166.628 13.5L169.227 15L166.628 13.5ZM183.372 13.5L180.773 15L183.372 13.5ZM175.866 0.5L178.464 -0.999999L175.866 0.5ZM174.134 0.500001L171.536 -0.999999L174.134 0.500001ZM173.268 2L180.773 15L185.97 12L178.464 -0.999999L173.268 2ZM169.227 15L176.732 2L171.536 -0.999999L164.03 12L169.227 15ZM5 17H165.762V11H5V17ZM3 19C3 17.8954 3.89543 17 5 17V11C0.581721 11 -3 14.5817 -3 19H3ZM3 59V19H-3V59H3ZM4.99999 61C3.89543 61 3 60.1046 3 59H-3C-3 63.4183 0.581704 67 4.99999 67V61ZM345 61H4.99999V67H345V61ZM347 59C347 60.1046 346.105 61 345 61V67C349.418 67 353 63.4183 353 59H347ZM347 19V59H353V19H347ZM345 17C346.105 17 347 17.8954 347 19H353C353 14.5817 349.418 11 345 11V17ZM184.238 17H345V11H184.238V17ZM164.03 12C164.388 11.3812 165.048 11 165.762 11V17C167.191 17 168.512 16.2376 169.227 15L164.03 12ZM180.773 15C181.488 16.2376 182.809 17 184.238 17V11C184.952 11 185.612 11.3812 185.97 12L180.773 15ZM178.464 -0.999999C176.924 -3.66667 173.076 -3.66666 171.536 -0.999999L176.732 2C175.962 3.33333 174.038 3.33334 173.268 2L178.464 -0.999999Z" fill="url(#paint1_linear_89_3040)" fill-opacity="0.2" mask="url(#path-1-inside-1_89_3040)"/>
</g>
<defs>
<linearGradient id="paint0_linear_89_3040" x1="31" y1="4" x2="131.445" y2="185.171" gradientUnits="userSpaceOnUse">
<stop stop-color="#0085FF"/>
<stop offset="1" stop-color="white" stop-opacity="0.2"/>
</linearGradient>
<linearGradient id="paint1_linear_89_3040" x1="32" y1="-16.832" x2="213.684" y2="219.352" gradientUnits="userSpaceOnUse">
<stop offset="0.364583" stop-color="white" stop-opacity="0.9"/>
<stop offset="0.739583" stop-color="white" stop-opacity="0.5"/>
<stop offset="1" stop-color="#0DDCAA" stop-opacity="0.41"/>
</linearGradient>
</defs>
</svg>
