<svg width="21" height="21" viewBox="0 0 21 21" fill="none" xmlns="http://www.w3.org/2000/svg">
<path d="M7.875 12.7969C8.41866 12.7969 8.85938 12.3562 8.85938 11.8125C8.85938 11.2688 8.41866 10.8281 7.875 10.8281C7.33134 10.8281 6.89062 11.2688 6.89062 11.8125C6.89062 12.3562 7.33134 12.7969 7.875 12.7969Z" fill="white"/>
<path d="M13.125 12.7969C13.6687 12.7969 14.1094 12.3562 14.1094 11.8125C14.1094 11.2688 13.6687 10.8281 13.125 10.8281C12.5813 10.8281 12.1406 11.2688 12.1406 11.8125C12.1406 12.3562 12.5813 12.7969 13.125 12.7969Z" fill="white"/>
<path d="M6.10315 6.5625C7.52578 6.11663 9.0092 5.89523 10.5 5.90625C11.9908 5.89523 13.4743 6.11663 14.8969 6.5625" stroke="white" stroke-width="2" stroke-linecap="round" stroke-linejoin="round"/>
<path d="M14.8969 14.4375C13.4743 14.8834 11.9908 15.1048 10.5 15.0938C9.0092 15.1048 7.52578 14.8834 6.10315 14.4375" stroke="white" stroke-width="2" stroke-linecap="round" stroke-linejoin="round"/>
<path d="M12.7148 14.9379L13.7074 16.9066C13.7713 17.0409 13.8799 17.1487 14.0146 17.2116C14.1493 17.2745 14.3018 17.2885 14.4457 17.2512C16.4554 16.759 18.1945 15.9059 19.4578 14.8066C19.553 14.7226 19.6222 14.613 19.6571 14.4909C19.692 14.3688 19.6911 14.2392 19.6547 14.1176L16.8738 4.83164C16.8467 4.73661 16.7978 4.64925 16.7308 4.57659C16.6638 4.50393 16.5808 4.448 16.4883 4.41328C15.7026 4.09096 14.8901 3.83842 14.0601 3.65859C13.9006 3.62366 13.7339 3.64868 13.5916 3.72887C13.4494 3.80906 13.3417 3.93881 13.289 4.09336L12.641 6.05391" stroke="white" stroke-width="2" stroke-linecap="round" stroke-linejoin="round"/>
<path d="M8.28515 14.9379L7.29257 16.9066C7.22871 17.0409 7.12008 17.1487 6.98536 17.2116C6.85063 17.2745 6.69821 17.2885 6.55429 17.2512C4.54453 16.759 2.80546 15.9059 1.54218 14.8066C1.44694 14.7226 1.37778 14.613 1.34289 14.4909C1.308 14.3688 1.30884 14.2392 1.34531 14.1176L4.12617 4.83164C4.15323 4.73661 4.20221 4.64925 4.26917 4.57659C4.33613 4.50393 4.41921 4.448 4.51171 4.41328C5.29738 4.09096 6.10989 3.83842 6.93984 3.65859C7.09933 3.62366 7.2661 3.64868 7.40833 3.72887C7.55055 3.80906 7.65827 3.93881 7.71093 4.09336L8.35898 6.05391" stroke="white" stroke-width="2" stroke-linecap="round" stroke-linejoin="round"/>
<path d="M7.875 12.7969C8.41866 12.7969 8.85938 12.3562 8.85938 11.8125C8.85938 11.2688 8.41866 10.8281 7.875 10.8281C7.33134 10.8281 6.89062 11.2688 6.89062 11.8125C6.89062 12.3562 7.33134 12.7969 7.875 12.7969Z" fill="white"/>
<path d="M13.125 12.7969C13.6687 12.7969 14.1094 12.3562 14.1094 11.8125C14.1094 11.2688 13.6687 10.8281 13.125 10.8281C12.5813 10.8281 12.1406 11.2688 12.1406 11.8125C12.1406 12.3562 12.5813 12.7969 13.125 12.7969Z" fill="white"/>
<path d="M6.10315 6.5625C7.52578 6.11663 9.0092 5.89523 10.5 5.90625C11.9908 5.89523 13.4743 6.11663 14.8969 6.5625" stroke="white" stroke-width="2" stroke-linecap="round" stroke-linejoin="round"/>
<path d="M14.8969 14.4375C13.4743 14.8834 11.9908 15.1048 10.5 15.0938C9.0092 15.1048 7.52578 14.8834 6.10315 14.4375" stroke="white" stroke-width="2" stroke-linecap="round" stroke-linejoin="round"/>
<path d="M12.7148 14.9379L13.7074 16.9066C13.7713 17.0409 13.8799 17.1487 14.0146 17.2116C14.1493 17.2745 14.3018 17.2885 14.4457 17.2512C16.4554 16.759 18.1945 15.9059 19.4578 14.8066C19.553 14.7226 19.6222 14.613 19.6571 14.4909C19.692 14.3688 19.6911 14.2392 19.6547 14.1176L16.8738 4.83164C16.8467 4.73661 16.7978 4.64925 16.7308 4.57659C16.6638 4.50393 16.5808 4.448 16.4883 4.41328C15.7026 4.09096 14.8901 3.83842 14.0601 3.65859C13.9006 3.62366 13.7339 3.64868 13.5916 3.72887C13.4494 3.80906 13.3417 3.93881 13.289 4.09336L12.641 6.05391" stroke="white" stroke-width="2" stroke-linecap="round" stroke-linejoin="round"/>
<path d="M8.28515 14.9379L7.29257 16.9066C7.22871 17.0409 7.12008 17.1487 6.98536 17.2116C6.85063 17.2745 6.69821 17.2885 6.55429 17.2512C4.54453 16.759 2.80546 15.9059 1.54218 14.8066C1.44694 14.7226 1.37778 14.613 1.34289 14.4909C1.308 14.3688 1.30884 14.2392 1.34531 14.1176L4.12617 4.83164C4.15323 4.73661 4.20221 4.64925 4.26917 4.57659C4.33613 4.50393 4.41921 4.448 4.51171 4.41328C5.29738 4.09096 6.10989 3.83842 6.93984 3.65859C7.09933 3.62366 7.2661 3.64868 7.40833 3.72887C7.55055 3.80906 7.65827 3.93881 7.71093 4.09336L8.35898 6.05391" stroke="white" stroke-width="2" stroke-linecap="round" stroke-linejoin="round"/>
</svg>
