<svg width="428" height="713" viewBox="0 0 428 713" fill="none" xmlns="http://www.w3.org/2000/svg">
<g opacity="0.03" clip-path="url(#clip0_72_636)">
<path fill-rule="evenodd" clip-rule="evenodd" d="M214 0C197.415 18.8546 187.25 43.593 187.25 70.6047C188.32 130.11 195.542 189.482 196.211 248.988C197.549 304.348 180.964 356.366 160.767 407.046C153.946 421.087 146.724 434.86 139.367 448.633L117.967 444.221C98.5735 440.343 86.0011 421.622 89.8798 402.366C93.3573 385.383 108.204 373.75 124.789 373.616L132.546 374.418L115.159 229.197C109.407 164.477 76.1035 107.645 26.8837 70.605C18.3237 64.3202 9.36249 58.5701 0 53.3551V569.782H119.305C128.266 618.189 154.883 660.312 192.333 689.329C201.294 695.346 208.65 703.503 214 712.997C219.35 703.503 226.706 695.346 235.668 689.329C273.118 660.311 299.734 618.189 308.695 569.782H428V53.3551C418.638 58.5702 409.676 64.3202 401.116 70.605C351.896 107.646 318.592 164.477 312.841 229.197L295.454 374.418L303.212 373.616C319.797 373.75 334.643 385.383 338.12 402.366C341.999 421.622 329.426 440.343 310.033 444.221L288.633 448.633C281.277 434.86 274.054 421.087 267.233 407.046C247.036 356.366 230.451 304.349 231.789 248.988C232.458 189.482 239.68 130.11 240.75 70.6047C240.75 43.5931 230.585 18.8547 214 0ZM35.711 127.837C58.8497 154.849 74.3647 188.546 78.9122 225.721L93.2235 345.668C75.0335 354.761 61.1235 371.342 55.9073 391.401H35.711V127.837ZM392.289 127.837V391.401H372.092C366.876 371.343 352.966 354.761 334.776 345.668L349.087 225.721C353.635 188.547 369.15 154.849 392.289 127.837ZM214 368.802C223.496 400.093 236.737 429.779 253.055 457.459C237.54 462.273 223.897 471.499 214 483.802C204.102 471.366 190.46 462.273 174.945 457.459C191.262 429.779 204.503 400.093 214 368.802ZM35.711 427.104H55.9073C62.3273 451.709 81.4535 471.232 105.93 477.918L123.05 481.93C118.502 498.511 115.961 516.028 115.961 534.081H35.7113L35.711 427.104ZM372.092 427.104H392.288V534.081H312.038C312.038 516.028 309.497 498.511 304.95 481.929L322.07 477.918C346.412 471.232 365.672 451.709 372.092 427.104ZM157.958 490.087C179.492 493.162 196.211 511.616 196.211 534.081H151.672C151.672 518.837 153.946 504.128 157.958 490.087ZM270.041 490.087C274.053 504.128 276.327 518.837 276.327 534.081H231.788C231.788 511.616 248.507 493.162 270.041 490.087ZM155.684 569.784H196.21V644.802C176.549 624.209 162.238 598.4 155.684 569.784ZM231.788 569.784H272.314C265.761 598.4 251.449 624.209 231.788 644.802V569.784Z" fill="white"/>
</g>
<defs>
<clipPath id="clip0_72_636">
<rect width="428" height="713" fill="white"/>
</clipPath>
</defs>
</svg>
