<svg width="540" height="900" viewBox="0 0 540 900" fill="none" xmlns="http://www.w3.org/2000/svg">
<g opacity="0.01" clip-path="url(#clip0_8_82)">
<path fill-rule="evenodd" clip-rule="evenodd" d="M270 0C249.075 23.7997 236.25 55.0262 236.25 89.1223C237.6 164.235 246.712 239.178 247.556 314.291C249.243 384.17 228.318 449.831 202.837 513.803C194.231 531.526 185.118 548.912 175.837 566.297L148.837 560.727C124.368 555.832 108.506 532.201 113.4 507.895C117.787 486.459 136.518 471.774 157.443 471.605L167.231 472.618L145.293 289.31C138.037 207.614 96.0185 135.878 33.9187 89.1227C23.1187 81.1895 11.8125 73.9314 0 67.3486V719.22H150.525C161.831 780.323 195.413 833.493 242.663 870.12C253.969 877.716 263.25 888.012 270 899.996C276.75 888.012 286.031 877.716 297.338 870.12C344.588 833.492 378.169 780.323 389.475 719.22H540V67.3486C528.188 73.9315 516.881 81.1895 506.081 89.1227C443.981 135.878 401.962 207.615 394.707 289.31L372.769 472.618L382.557 471.605C403.482 471.774 422.213 486.459 426.6 507.895C431.494 532.201 415.632 555.832 391.163 560.727L364.163 566.297C354.882 548.912 345.769 531.526 337.163 513.803C311.682 449.831 290.757 384.171 292.444 314.291C293.288 239.178 302.4 164.235 303.75 89.1223C303.75 55.0264 290.925 23.7997 270 0H270ZM45.0559 161.365C74.2497 195.461 93.8247 237.997 99.5621 284.921L117.618 436.327C94.6684 447.805 77.1184 468.735 70.5372 494.054H45.0559V161.365V161.365ZM494.943 161.365V494.054H469.462C462.881 468.736 445.331 447.805 422.381 436.327L440.437 284.921C446.175 237.997 465.75 195.462 494.943 161.366V161.365ZM270 465.528C281.981 505.026 298.687 542.498 319.275 577.437C299.7 583.514 282.487 595.16 270 610.689C257.512 594.992 240.3 583.514 220.725 577.437C241.312 542.497 258.018 505.026 270 465.528ZM45.0559 539.122H70.5372C78.6372 570.179 102.768 594.823 133.65 603.263L155.25 608.326C149.512 629.257 146.306 651.368 146.306 674.155H45.0563V539.122L45.0559 539.122ZM469.462 539.122H494.943V674.155H393.693C393.693 651.368 390.487 629.257 384.75 608.326L406.35 603.262C437.062 594.823 461.362 570.179 469.462 539.121L469.462 539.122ZM199.293 618.623C226.462 622.505 247.556 645.798 247.556 674.155H191.362C191.362 654.913 194.231 636.346 199.293 618.623ZM340.706 618.623C345.768 636.346 348.637 654.913 348.637 674.155H292.443C292.443 645.798 313.537 622.505 340.706 618.623ZM196.424 719.223H247.555V813.915C222.749 787.921 204.693 755.344 196.424 719.223ZM292.443 719.223H343.574C335.305 755.344 317.249 787.921 292.443 813.915V719.223Z" fill="white"/>
</g>
<defs>
<clipPath id="clip0_8_82">
<rect width="540" height="900" fill="white"/>
</clipPath>
</defs>
</svg>
