<svg width="21" height="21" viewBox="0 0 21 21" fill="none" xmlns="http://www.w3.org/2000/svg">
<path d="M10.5 13.7812C12.3122 13.7812 13.7812 12.3122 13.7812 10.5C13.7812 8.68782 12.3122 7.21875 10.5 7.21875C8.68782 7.21875 7.21875 8.68782 7.21875 10.5C7.21875 12.3122 8.68782 13.7812 10.5 13.7812Z" stroke="white" stroke-opacity="0.9" stroke-width="2" stroke-miterlimit="10"/>
<path d="M14.1094 3.28125H6.89062C4.716 3.28125 2.95312 5.04413 2.95312 7.21875V14.4375C2.95312 16.6121 4.716 18.375 6.89062 18.375H14.1094C16.284 18.375 18.0469 16.6121 18.0469 14.4375V7.21875C18.0469 5.04413 16.284 3.28125 14.1094 3.28125Z" stroke="white" stroke-opacity="0.9" stroke-width="2" stroke-linecap="round" stroke-linejoin="round"/>
<path d="M14.7656 7.21875C15.3093 7.21875 15.75 6.77803 15.75 6.23438C15.75 5.69072 15.3093 5.25 14.7656 5.25C14.222 5.25 13.7812 5.69072 13.7812 6.23438C13.7812 6.77803 14.222 7.21875 14.7656 7.21875Z" fill="white" fill-opacity="0.9"/>
</svg>
