<svg width="20" height="21" viewBox="0 0 20 21" fill="none" xmlns="http://www.w3.org/2000/svg">
<path d="M10 14.3469C12.0711 14.3469 13.75 12.668 13.75 10.5969C13.75 8.52586 12.0711 6.84692 10 6.84692C7.92893 6.84692 6.25 8.52586 6.25 10.5969C6.25 12.668 7.92893 14.3469 10 14.3469Z" stroke="white" stroke-width="2" stroke-linecap="round" stroke-linejoin="round"/>
<path d="M15.4219 6.90161C15.61 7.17089 15.7746 7.45578 15.9141 7.75317L17.9375 8.87817C18.1902 10.0098 18.1928 11.1829 17.9453 12.3157L15.9141 13.4407C15.7746 13.7381 15.61 14.023 15.4219 14.2922L15.461 16.6125C14.6034 17.394 13.5885 17.9827 12.4844 18.3391L10.4922 17.1438C10.1645 17.1672 9.83554 17.1672 9.50783 17.1438L7.52346 18.3313C6.41589 17.9814 5.3976 17.3949 4.53909 16.6125L4.57815 14.3C4.39164 14.027 4.22706 13.7397 4.08596 13.4407L2.06252 12.3157C1.80987 11.1841 1.8072 10.0109 2.05471 8.87817L4.08596 7.75317C4.2254 7.45578 4.39006 7.17089 4.57815 6.90161L4.53909 4.5813C5.39662 3.79987 6.41157 3.21114 7.51565 2.85474L9.50783 4.05005C9.83554 4.02661 10.1645 4.02661 10.4922 4.05005L12.4766 2.86255C13.5842 3.21247 14.6024 3.79892 15.461 4.5813L15.4219 6.90161Z" stroke="white" stroke-width="2" stroke-linecap="round" stroke-linejoin="round"/>
</svg>
