<svg width="21" height="21" viewBox="0 0 21 21" fill="none" xmlns="http://www.w3.org/2000/svg">
<path d="M7.21878 11.066L14.5934 17.5547C14.6786 17.6301 14.782 17.6821 14.8934 17.7055C15.0048 17.7289 15.1203 17.723 15.2287 17.6882C15.3371 17.6535 15.4346 17.5911 15.5116 17.5073C15.5886 17.4235 15.6425 17.3211 15.668 17.2102L18.7524 3.74063C18.7782 3.62463 18.7721 3.50378 18.7347 3.39099C18.6972 3.2782 18.6298 3.1777 18.5397 3.10021C18.4496 3.02273 18.3401 2.97117 18.223 2.95104C18.1058 2.93092 17.9854 2.94298 17.8746 2.98594L2.73167 8.9332C2.12463 9.17109 2.20667 10.057 2.84651 10.1883L7.21878 11.066Z" stroke="white" stroke-opacity="0.9" stroke-width="2" stroke-linecap="round" stroke-linejoin="round"/>
<path d="M7.21875 11.066L18.3832 3.00234" stroke="white" stroke-opacity="0.9" stroke-width="2" stroke-linecap="round" stroke-linejoin="round"/>
<path d="M10.902 14.3063L8.34258 16.8656C8.25127 16.9583 8.13446 17.0218 8.00699 17.048C7.87952 17.0742 7.74715 17.0619 7.62669 17.0126C7.50624 16.9634 7.40314 16.8794 7.3305 16.7715C7.25787 16.6635 7.21897 16.5364 7.21875 16.4063V11.066" stroke="white" stroke-opacity="0.9" stroke-width="2" stroke-linecap="round" stroke-linejoin="round"/>
</svg>
