<svg width="21" height="21" viewBox="0 0 21 21" fill="none" xmlns="http://www.w3.org/2000/svg">
<path d="M13.7812 8.69531C15.12 9.65655 16.7269 10.173 18.375 10.1719V6.89062C17.1567 6.89062 15.9882 6.40664 15.1267 5.54515C14.2652 4.68365 13.7813 3.51521 13.7812 2.29688H10.5V12.7969C10.5 13.2079 10.3896 13.6114 10.1805 13.9653C9.97141 14.3191 9.67116 14.6104 9.31111 14.8087C8.95106 15.007 8.54439 15.105 8.13355 15.0925C7.7227 15.0801 7.32272 14.9576 6.97533 14.7379C6.62795 14.5182 6.34589 14.2093 6.15859 13.8434C5.97128 13.4775 5.88559 13.0681 5.91046 12.6578C5.93532 12.2475 6.06983 11.8514 6.29995 11.5108C6.53007 11.1702 6.84737 10.8976 7.21875 10.7215V7.30898C6.17415 7.49627 5.20464 7.97765 4.42405 8.69663C3.64345 9.41562 3.08415 10.3424 2.81181 11.3681C2.53946 12.3938 2.56537 13.4759 2.88649 14.4874C3.20761 15.4989 3.81062 16.3979 4.62474 17.0787C5.43885 17.7595 6.43028 18.1939 7.48265 18.331C8.53502 18.468 9.60465 18.3021 10.566 17.8525C11.5273 17.403 12.3405 16.6885 12.91 15.793C13.4795 14.8975 13.7818 13.8581 13.7812 12.7969V8.69531Z" stroke="white" stroke-opacity="0.9" stroke-width="2" stroke-linecap="round" stroke-linejoin="round"/>
</svg>
