<svg width="21" height="21" viewBox="0 0 21 21" fill="none" xmlns="http://www.w3.org/2000/svg">
<path d="M13.125 10.5L9.1875 7.875V13.125L13.125 10.5Z" stroke="white" stroke-opacity="0.9" stroke-width="2" stroke-linecap="round" stroke-linejoin="round"/>
<path d="M1.96875 10.5C1.96875 12.9445 2.22305 14.3719 2.41172 15.1102C2.46374 15.3105 2.56212 15.4958 2.69891 15.6511C2.8357 15.8064 3.00708 15.9274 3.19922 16.0043C5.94727 17.0543 10.5 17.0297 10.5 17.0297C10.5 17.0297 15.0527 17.0543 17.8008 16.0043C17.9929 15.9274 18.1643 15.8064 18.3011 15.6511C18.4379 15.4958 18.5363 15.3105 18.5883 15.1102C18.777 14.3719 19.0312 12.9445 19.0312 10.5C19.0312 8.05547 18.777 6.62813 18.5883 5.88985C18.5363 5.68953 18.4379 5.50424 18.3011 5.34892C18.1643 5.19361 17.9929 5.07262 17.8008 4.9957C15.0527 3.9457 10.5 3.97031 10.5 3.97031C10.5 3.97031 5.94727 3.9457 3.19922 4.9957C3.00708 5.07262 2.8357 5.19361 2.69891 5.34892C2.56212 5.50424 2.46374 5.68953 2.41172 5.88985C2.22305 6.62813 1.96875 8.05547 1.96875 10.5Z" stroke="white" stroke-opacity="0.9" stroke-width="2" stroke-linecap="round" stroke-linejoin="round"/>
</svg>
